<?xml version="1.0" encoding="UTF-8"?>
<svg version="1.1" xmlns="http://www.w3.org/2000/svg" width="512" height="512">
<path d="M0 0 C4.12279192 0.00914431 8.24551904 -0.00496515 12.36829758 -0.01591969 C20.42114874 -0.03361055 28.47384991 -0.02990731 36.5267067 -0.01826912 C43.07743169 -0.00919766 49.62811496 -0.00802676 56.17884445 -0.01236439 C57.11483144 -0.01297732 58.05081843 -0.01359025 59.01516867 -0.01422176 C60.9172179 -0.01550079 62.81926713 -0.01679765 64.72131634 -0.01811212 C82.51389757 -0.02949029 100.30639608 -0.01644775 118.09896374 0.00508934 C133.3317681 0.0229578 148.56445049 0.01985291 163.79725266 0.0014143 C181.53063333 -0.02004141 199.26394168 -0.02839191 216.99733353 -0.01613665 C218.89198429 -0.01486259 220.78663507 -0.0136051 222.68128586 -0.01236439 C223.61324075 -0.01174729 224.54519565 -0.01113018 225.5053916 -0.01049438 C232.04044057 -0.00705555 238.57544327 -0.01283799 245.11048508 -0.0222826 C253.08571738 -0.03355638 261.06079241 -0.03035036 269.03600693 -0.00915962 C273.09708423 0.00127898 277.15790031 0.00559719 281.21897507 -0.00775623 C315.20309151 -0.10993334 342.84879771 5.5528535 368.02772141 30.05024242 C391.7657425 55.03570204 396.06230555 83.83956048 395.95296383 117.09283352 C395.94381952 121.21562544 395.95792898 125.33835256 395.96888351 129.4611311 C395.98657438 137.51398226 395.98287114 145.56668343 395.97123295 153.61954021 C395.96216149 160.17026521 395.96099059 166.72094848 395.96532822 173.27167797 C395.96594115 174.20766496 395.96655408 175.14365195 395.96718559 176.10800219 C395.96846462 178.01005142 395.96976148 179.91210065 395.97107595 181.81414986 C395.98245411 199.60673109 395.96941158 217.39922959 395.94787449 235.19179726 C395.93000603 250.42460162 395.93311092 265.65728401 395.95154953 280.89008617 C395.97300524 298.62346685 395.98135574 316.3567752 395.96910048 334.09016705 C395.96782642 335.98481781 395.96656893 337.87946859 395.96532822 339.77411938 C395.96471111 340.70607427 395.96409401 341.63802917 395.96345821 342.59822512 C395.96001938 349.13327409 395.96580182 355.66827679 395.97524643 362.2033186 C395.98652021 370.17855089 395.98331419 378.15362593 395.96212345 386.12884045 C395.95168485 390.18991775 395.94736664 394.25073383 395.96072006 398.31180859 C396.06289717 432.29592503 390.40011032 459.94163123 365.90272141 485.12055492 C340.91726179 508.85857602 312.11340335 513.15513907 278.86013031 513.04579735 C274.73733839 513.03665304 270.61461127 513.0507625 266.49183273 513.06171703 C258.43898157 513.0794079 250.3862804 513.07570466 242.33342361 513.06406647 C235.78269862 513.05499501 229.23201535 513.05382411 222.68128586 513.05816174 C221.74529887 513.05877467 220.80931188 513.0593876 219.84496164 513.06001911 C217.94291241 513.06129814 216.04086318 513.062595 214.13881397 513.06390947 C196.34623274 513.07528763 178.55373423 513.0622451 160.76116657 513.04070801 C145.52836221 513.02283955 130.29567982 513.02594444 115.06287766 513.04438305 C97.32949698 513.06583876 79.59618863 513.07418926 61.86279678 513.06193399 C59.96814602 513.06065994 58.07349524 513.05940245 56.17884445 513.05816174 C55.24688956 513.05754463 54.31493466 513.05692753 53.35473871 513.05629173 C46.81968974 513.0528529 40.28468704 513.05863534 33.74964523 513.06807995 C25.77441293 513.07935373 17.7993379 513.07614771 9.82412338 513.05495697 C5.76304608 513.04451837 1.70223 513.04020016 -2.35884476 513.05355358 C-36.3429612 513.15573069 -63.9886674 507.49294384 -89.16759109 482.99555492 C-112.90561219 458.01009531 -117.20217524 429.20623687 -117.09283352 395.95296383 C-117.08368921 391.83017191 -117.09779867 387.70744478 -117.1087532 383.58466625 C-117.12644407 375.53181509 -117.12274083 367.47911392 -117.11110264 359.42625713 C-117.10203118 352.87553214 -117.10086028 346.32484887 -117.10519791 339.77411938 C-117.10581084 338.83813239 -117.10642377 337.9021454 -117.10705528 336.93779516 C-117.10833431 335.03574593 -117.10963117 333.1336967 -117.11094564 331.23164749 C-117.1223238 313.43906626 -117.10928127 295.64656775 -117.08774418 277.85400009 C-117.06987572 262.62119573 -117.07298061 247.38851334 -117.09141922 232.15571117 C-117.11287493 214.4223305 -117.12122543 196.68902215 -117.10897017 178.9556303 C-117.10769611 177.06097954 -117.10643862 175.16632876 -117.10519791 173.27167797 C-117.10427225 171.87374563 -117.10427225 171.87374563 -117.1033279 170.44757223 C-117.09988907 163.91252326 -117.10567151 157.37752056 -117.11511612 150.84247875 C-117.1263899 142.86724645 -117.12318388 134.89217142 -117.10199314 126.9169569 C-117.09155454 122.8558796 -117.08723633 118.79506352 -117.10058975 114.73398876 C-117.20276686 80.74987232 -111.53998001 53.10416612 -87.04259109 27.92524242 C-62.05713148 4.18722132 -33.25327304 -0.10934172 0 0 Z " fill="#0A6DFD" transform="translate(116.5699348449707,-0.5228986740112305)"/>
<path d="M0 0 C6.11596664 0.42669535 11.26239893 2.53475681 16.9140625 4.84375 C31.1978591 10.19565354 47.15858029 7.18464075 61 2 C62.34047653 1.34781529 63.67666026 0.68629014 65 0 C67.4375 -0.5625 67.4375 -0.5625 70 0 C70.96486328 1.55654297 70.96486328 1.55654297 71.94921875 3.14453125 C75.5410286 8.36916238 80.80785435 10.52906497 86.375 13.25 C87.4695752 13.80212158 88.56415039 14.35424316 89.69189453 14.9230957 C98.34261321 19.26087175 107.06626503 23.45951889 115.82568359 27.57324219 C117.17654053 28.20794434 117.17654053 28.20794434 118.5546875 28.85546875 C119.73780518 29.40690552 119.73780518 29.40690552 120.94482422 29.96948242 C123 31 123 31 126 33 C128.48874209 33.33740768 130.93884022 33.59694763 133.4375 33.8125 C140.96460471 34.61733818 147.22421471 36.52499012 154 40 C154.86109375 40.43183594 155.7221875 40.86367187 156.609375 41.30859375 C170.1733631 48.74351269 179.7581541 61.5911345 185 76 C185.3609375 76.98355469 185.721875 77.96710938 186.09375 78.98046875 C187.59727932 84.39085784 187.24910829 89.99505568 187.1875 95.5625 C187.18685547 96.67302734 187.18621094 97.78355469 187.18554688 98.92773438 C187.14066259 107.26125081 187.14066259 107.26125081 186.3972168 111.16577148 C185.82413199 115.25485664 187.4248053 117.07569698 189.625 120.5 C199.86909162 137.25126034 201.35020806 154.0806103 201.30273438 173.3359375 C201.43274104 181.79056427 202.66950706 188.19861482 205.83276367 195.99853516 C209.39035323 205.14662259 208 212.36044404 208 223 C190.84 223 173.68 223 156 223 C156 217.21250691 156.49007563 214.28473529 158 209 C158.36634295 204.98877659 158.44747849 202.74368174 156.34765625 199.25390625 C155.21650391 197.92166016 155.21650391 197.92166016 154.0625 196.5625 C142.09785275 181.67888934 128.96278559 157.87926966 131 138 C132.171875 135.7109375 132.171875 135.7109375 133.75 133.375 C140.15332407 123.09637815 141.67895062 113.89487968 142 102 C140.68 102 139.36 102 138 102 C137.85304688 102.72703125 137.70609375 103.4540625 137.5546875 104.203125 C134.21214874 119.18691942 127.03887447 131.74098372 114.28515625 140.69140625 C98.23715354 149.88128814 80.88744536 150.04427947 63 148 C62.67 148.99 62.34 149.98 62 151 C63.85296835 151.48377991 65.70744441 151.96178636 67.5625 152.4375 C68.59503906 152.70433594 69.62757813 152.97117187 70.69140625 153.24609375 C87.66978823 157.11483958 104.72655164 155.51788466 120 147 C121.32402671 146.63143228 122.65639612 146.28916692 124 146 C127.08324667 160.58712499 121.72721065 169.87625006 114.5703125 182.1953125 C106.27102958 196.48842827 104.99019461 205.17649697 104 223 C58.46 223 12.92 223 -34 223 C-34.495 214.09 -34.495 214.09 -35 205 C-36.06448092 197.99940867 -38.34540952 192.73426317 -41.75 186.5625 C-42.19666016 185.73282715 -42.64332031 184.9031543 -43.10351562 184.04833984 C-45.87002332 178.94471368 -48.73206077 173.91053216 -51.84375 169.0078125 C-54.27895436 164.77911303 -55.26302362 161.38843803 -55.1875 156.5 C-55.18105469 155.5821875 -55.17460937 154.664375 -55.16796875 153.71875 C-55.00378988 151.06134313 -54.58734999 148.59373754 -54 146 C-49.27273518 147.86831238 -44.60713923 149.87167612 -39.9375 151.87890625 C-32.91344 154.55963128 -25.86211167 154.21911238 -18.4375 154.25 C-17.22513672 154.270625 -16.01277344 154.29125 -14.76367188 154.3125 C-6.74124964 154.34691254 0.32629983 153.34643755 8 151 C7.67 150.01 7.34 149.02 7 148 C6.37996094 148.0721875 5.75992188 148.144375 5.12109375 148.21875 C-13.68130584 150.18930716 -32.02650697 149.71615978 -47.72265625 137.9609375 C-58.72694989 128.56662347 -65.45062294 117.18929601 -68 103 C-69.98 102.505 -69.98 102.505 -72 102 C-71.11297536 113.91525637 -70.22117693 125.26742974 -62.625 135.0625 C-58.8814366 141.82971077 -62.12289743 150.14869647 -64.125 157.1875 C-68.67170398 172.23600165 -75.08415652 187.32221075 -85.78125 199.078125 C-88.19684638 201.74438275 -88.19684638 201.74438275 -88.3046875 204.6328125 C-88.16289062 205.45523438 -88.02109375 206.27765625 -87.875 207.125 C-87.74867188 207.95257813 -87.62234375 208.78015625 -87.4921875 209.6328125 C-87.048668 211.93155749 -87.048668 211.93155749 -86.4453125 213.8671875 C-85.80953628 216.91222099 -85.97435782 219.89819559 -86 223 C-93.24486551 223.02526739 -100.48971974 223.0428318 -107.73461914 223.05493164 C-110.20142033 223.05997356 -112.66821852 223.06680691 -115.13500977 223.07543945 C-118.67204529 223.08751125 -122.20904145 223.09322956 -125.74609375 223.09765625 C-126.85649521 223.10281754 -127.96689667 223.10797882 -129.11094666 223.11329651 C-130.64242088 223.11340981 -130.64242088 223.11340981 -132.20483398 223.11352539 C-133.56051735 223.11685631 -133.56051735 223.11685631 -134.94358826 223.12025452 C-137 223 -137 223 -138 222 C-138.91589264 210.33362978 -137.81223213 198.45869545 -132.95239258 187.67553711 C-131.84666397 184.56923619 -131.72898164 182.0594884 -131.69140625 178.765625 C-131.65708496 176.9566272 -131.65708496 176.9566272 -131.62207031 175.11108398 C-131.60241211 173.83692627 -131.58275391 172.56276855 -131.5625 171.25 C-131.09096711 153.07240722 -129.87310718 128.87310718 -116 115 C-116.22717397 112.86626315 -116.4597084 110.7329516 -116.72021484 108.60302734 C-118.85286858 88.76153157 -116.07946503 71.97567495 -103.59375 55.90234375 C-94.28349885 44.7859913 -82.4150772 36.77490236 -68 34 C-66.12575871 33.93231906 -64.25039779 33.89062831 -62.375 33.875 C-54.86795593 33.40824078 -49.20509413 29.76619801 -42.78125 26.16796875 C-38.34641835 23.69094913 -33.84357591 21.40483808 -29.28125 19.17578125 C-28.27449722 18.68223145 -28.27449722 18.68223145 -27.24740601 18.17871094 C-24.53927528 16.85237864 -21.83059595 15.52752328 -19.11407471 14.21844482 C-17.19903308 13.29410352 -15.29059789 12.35717523 -13.3828125 11.41796875 C-12.27309082 10.87938232 -11.16336914 10.3407959 -10.02001953 9.78588867 C-5.67241686 7.21493366 -2.78847435 4.18271152 0 0 Z " fill="#FDFEFE" transform="translate(221,143)"/>
<path d="M0 0 C1.14404297 0.22171875 2.28808594 0.4434375 3.46679688 0.671875 C5.10165039 1.00058594 5.10165039 1.00058594 6.76953125 1.3359375 C8.25803589 1.63443604 8.25803589 1.63443604 9.77661133 1.93896484 C12.1875 2.625 12.1875 2.625 14.1875 4.625 C14.1875 5.615 14.1875 6.605 14.1875 7.625 C6.57799689 7.80854021 -0.71897899 7.32512174 -8.25 6.25 C-9.21615234 6.12367188 -10.18230469 5.99734375 -11.17773438 5.8671875 C-15.47514206 5.2715662 -18.98450877 4.75820161 -22.8125 2.625 C-22.4375 0.6875 -22.4375 0.6875 -21.8125 -1.375 C-15.47445887 -4.54402057 -6.51100504 -1.32831965 0 0 Z " fill="#1C81FE" transform="translate(201.8125,176.375)"/>
<path d="M0 0 C-0.33 1.32 -0.66 2.64 -1 4 C-5.310841 4.67769467 -9.62389584 5.34014117 -13.9375 6 C-15.14986328 6.19078125 -16.36222656 6.3815625 -17.61132812 6.578125 C-24.15754184 7.57158833 -30.37933821 8.22854496 -37 8 C-36.60766602 6.05883789 -36.60766602 6.05883789 -36 4 C-30.69042773 1.09839701 -23.73189915 0.47167277 -17.8125 -0.6875 C-16.81561157 -0.88484741 -16.81561157 -0.88484741 -15.79858398 -1.08618164 C-4.70201072 -3.13467381 -4.70201072 -3.13467381 0 0 Z " fill="#1B80FE" transform="translate(333,176)"/>
</svg>
